<svg width="30" height="30" viewBox="0 0 30 30" fill="none" xmlns="http://www.w3.org/2000/svg">
<path d="M6.18958 14.0695C6.19815 13.8268 6.30061 13.5968 6.47538 13.4281C6.65015 13.2594 6.88358 13.1651 7.1265 13.1651C7.36941 13.1651 7.60284 13.2594 7.77761 13.4281C7.95238 13.5968 8.05484 13.8268 8.06341 14.0695L8.06341 19.7618L21.0477 6.77751C21.2235 6.60169 21.4619 6.50292 21.7106 6.50292C21.9592 6.50292 22.1977 6.60169 22.3735 6.77751C22.5493 6.95332 22.6481 7.19178 22.6481 7.44042C22.6481 7.68906 22.5493 7.92752 22.3735 8.10333L9.38924 21.0876L15.0814 21.0876C15.2073 21.0831 15.3327 21.1041 15.4502 21.1492C15.5678 21.1943 15.6751 21.2626 15.7656 21.35C15.8562 21.4374 15.9283 21.5422 15.9775 21.6581C16.0267 21.774 16.052 21.8986 16.052 22.0245C16.052 22.1504 16.0267 22.275 15.9775 22.3909C15.9283 22.5068 15.8562 22.6116 15.7656 22.699C15.6751 22.7864 15.5678 22.8547 15.4502 22.8998C15.3327 22.9449 15.2073 22.9659 15.0814 22.9614L7.1265 22.9614C6.87806 22.9613 6.63984 22.8625 6.46417 22.6868C6.2885 22.5112 6.18974 22.2729 6.18958 22.0245L6.18958 14.0695Z" fill="white"/>
</svg>
