<svg width="30" height="30" viewBox="0 0 30 30" fill="none" xmlns="http://www.w3.org/2000/svg">
<path d="M22.6815 15.4305C22.6729 15.6732 22.5705 15.9032 22.3957 16.0719C22.2209 16.2406 21.9875 16.3349 21.7446 16.3349C21.5017 16.3349 21.2683 16.2406 21.0935 16.0719C20.9187 15.9032 20.8162 15.6732 20.8077 15.4305L20.8077 9.73824L7.82343 22.7225C7.64762 22.8983 7.40916 22.9971 7.16052 22.9971C6.91188 22.9971 6.67342 22.8983 6.49761 22.7225C6.32179 22.5467 6.22302 22.3082 6.22302 22.0596C6.22302 21.8109 6.32179 21.5725 6.49761 21.3967L19.4819 8.41242L13.7896 8.41242C13.6638 8.41686 13.5384 8.39592 13.4209 8.35083C13.3033 8.30575 13.196 8.23745 13.1055 8.15001C13.0149 8.06257 12.9428 7.95778 12.8936 7.8419C12.8444 7.72601 12.8191 7.6014 12.8191 7.4755C12.8191 7.34961 12.8444 7.225 12.8936 7.10911C12.9428 6.99323 13.0149 6.88844 13.1055 6.801C13.196 6.71356 13.3033 6.64526 13.4209 6.60018C13.5384 6.55509 13.6638 6.53415 13.7896 6.53859L21.7446 6.53859C21.993 6.53874 22.2313 6.6375 22.4069 6.81317C22.5826 6.98885 22.6814 7.22707 22.6815 7.4755L22.6815 15.4305Z" fill="black"/>
</svg>
