<svg width="30" height="30" viewBox="0 0 30 30" fill="none" xmlns="http://www.w3.org/2000/svg">
<path d="M24.2266 10.9424C24.7065 10.6767 25.3102 10.8543 25.5742 11.3379L29.876 19.2236C30.1399 19.7076 29.9654 20.3169 29.4854 20.583C29.0054 20.8487 28.4027 20.671 28.1387 20.1875L24.9268 14.3027C24.8533 14.5067 24.7753 14.7219 24.6914 14.9453C24.069 16.6024 23.1509 18.7775 21.9795 20.7959C20.8226 22.7893 19.3509 24.7496 17.5771 25.8477C16.6735 26.4069 15.6631 26.7589 14.5674 26.749C13.4672 26.739 12.3637 26.3642 11.2773 25.6064C10.827 25.2921 10.7146 24.6689 11.0264 24.2148C11.3382 23.7615 11.956 23.6483 12.4062 23.9619C13.2196 24.5293 13.9438 24.7441 14.5859 24.75C15.2323 24.7557 15.8809 24.5509 16.5391 24.1436C17.889 23.3077 19.1581 21.6942 20.2666 19.7842C21.3605 17.8991 22.2342 15.8383 22.8359 14.2363C22.8742 14.1346 22.9084 14.0332 22.9443 13.9355L17.3584 17.0322C16.8784 17.2981 16.2758 17.1214 16.0117 16.6377C15.748 16.154 15.9227 15.5465 16.4023 15.2803L24.2266 10.9424ZM15.4307 3.25391C16.5309 3.26391 17.6353 3.63871 18.7217 4.39648C19.1719 4.71088 19.2844 5.3341 18.9727 5.78809C18.6608 6.24183 18.0422 6.35515 17.5918 6.04102C16.7787 5.47394 16.056 5.25988 15.4141 5.25391C14.7675 5.24803 14.1183 5.45193 13.46 5.85938C12.1099 6.69519 10.84 8.3086 9.73145 10.2188C8.6375 12.1039 7.76579 14.1656 7.16406 15.7676C7.12587 15.8693 7.09061 15.9698 7.05469 16.0674L12.6406 12.9717C13.1207 12.7057 13.7243 12.8823 13.9883 13.3662C14.2515 13.8499 14.0754 14.4567 13.5957 14.7227L5.77148 19.0605C5.29148 19.3261 4.6887 19.1487 4.4248 18.665L0.123047 10.7793C-0.140807 10.2955 0.0337606 9.68705 0.513672 9.4209C0.993687 9.15522 1.59642 9.33268 1.86035 9.81641L5.07227 15.7012C5.14572 15.4971 5.22364 15.2822 5.30762 15.0586C5.93007 13.4014 6.84805 11.2266 8.01953 9.20801C9.17653 7.21445 10.648 5.25341 12.4219 4.15527C13.3253 3.59614 14.3352 3.24409 15.4307 3.25391Z" fill="white"/>
</svg>
