<svg width="30" height="30" viewBox="0 0 30 30" fill="none" xmlns="http://www.w3.org/2000/svg">
<path d="M24.2276 10.9426C24.7076 10.6769 25.3103 10.8543 25.5742 11.3381L29.876 19.2238C30.1399 19.7077 29.9653 20.3161 29.4854 20.5822C29.0054 20.8477 28.4026 20.6704 28.1387 20.1867L24.9277 14.301C24.8542 14.5052 24.7755 14.7207 24.6914 14.9445C24.069 16.6016 23.1509 18.7757 21.9795 20.7941C20.8225 22.7877 19.352 24.7497 17.5781 25.8479C16.6746 26.4071 15.6641 26.7591 14.5684 26.7492C13.468 26.7392 12.3639 26.3636 11.2774 25.6057C10.8273 25.2912 10.7147 24.669 11.0264 24.215C11.3382 23.7612 11.9568 23.6479 12.4072 23.9621C13.2202 24.5292 13.9431 24.7432 14.585 24.7492C15.2315 24.7551 15.8807 24.5512 16.5391 24.1438C17.8893 23.308 19.159 21.6946 20.2676 19.7844C21.3616 17.8991 22.2352 15.8376 22.8369 14.2356C22.8751 14.134 22.9095 14.0333 22.9453 13.9357L17.3584 17.0315C16.8784 17.2973 16.2747 17.1207 16.0108 16.6369C15.7476 16.1532 15.9236 15.5454 16.4033 15.2795L24.2276 10.9426ZM15.4317 3.25411C16.5318 3.26417 17.6354 3.63897 18.7217 4.39669C19.1719 4.711 19.2842 5.3333 18.9727 5.78731C18.6608 6.24088 18.0431 6.35504 17.5928 6.04122C16.7795 5.47395 16.0561 5.26 15.4141 5.25411C14.7677 5.24826 14.1191 5.45131 13.461 5.8586C12.1108 6.69434 10.842 8.30778 9.73341 10.218C8.63925 12.1033 7.76492 14.1646 7.1631 15.7668C7.12489 15.8686 7.09064 15.9699 7.0547 16.0676L12.6406 12.9709C13.1206 12.705 13.7233 12.8818 13.9873 13.3654C14.251 13.8492 14.0764 14.4567 13.5967 14.7229L5.77247 19.0607C5.29258 19.3263 4.68981 19.1487 4.42579 18.6652L0.12306 10.7795C-0.140872 10.2956 0.0336284 9.68624 0.513685 9.42012C0.993601 9.15429 1.59625 9.33215 1.86036 9.81563L5.07228 15.7004C5.14567 15.4965 5.22471 15.2822 5.30861 15.0588C5.93105 13.4016 6.84905 11.2268 8.02052 9.20821C9.17751 7.21464 10.648 5.25266 12.4219 4.1545C13.3254 3.59531 14.3361 3.24424 15.4317 3.25411Z" fill="black"/>
</svg>
