<svg width="30" height="30" viewBox="0 0 30 30" fill="none" xmlns="http://www.w3.org/2000/svg">
<path d="M16.5081 23.5272C16.6383 23.9826 16.3173 24.4411 15.7903 24.5524L7.19003 26.362C6.66269 26.4727 6.12896 26.1937 5.99798 25.7384C5.86758 25.2829 6.18967 24.8237 6.71702 24.7126L13.1351 23.3611C12.9597 23.2552 12.7747 23.1436 12.5834 23.0247C11.1656 22.1432 9.33043 20.9026 7.70871 19.4874C6.10718 18.0897 4.61646 16.4391 4.02385 14.7298C3.72208 13.859 3.64469 12.9448 3.93351 12.0413C4.22359 11.1344 4.86164 10.305 5.85931 9.57506C6.27311 9.27264 6.89347 9.31878 7.24594 9.67682C7.59818 10.0351 7.54954 10.5707 7.13583 10.8734C6.38906 11.4199 6.00047 11.9698 5.83116 12.4991C5.66077 13.0321 5.69086 13.6136 5.91059 14.2479C6.36151 15.5488 7.57055 16.9559 9.105 18.2952C10.6197 19.6171 12.36 20.7952 13.7309 21.6475C13.8178 21.7015 13.905 21.7522 13.9886 21.8035L12.4667 16.5013C12.3361 16.0456 12.6577 15.5855 13.1851 15.4743C13.7127 15.3635 14.2458 15.6441 14.3766 16.0997L16.5081 23.5272ZM26.0661 17.9578C25.7761 18.8651 25.1371 19.6946 24.1391 20.4248C23.7253 20.7269 23.1055 20.682 22.7531 20.3242C22.4006 19.9659 22.4506 19.4296 22.8645 19.1269C23.6113 18.5803 23.9992 18.0294 24.1685 17.5001C24.3387 16.9671 24.3097 16.3857 24.09 15.7515C23.639 14.4504 22.4281 13.044 20.8934 11.7047C19.3788 10.3829 17.6402 9.20505 16.2694 8.3528C16.1823 8.29865 16.0948 8.247 16.011 8.19563L17.5335 13.499C17.664 13.9546 17.3408 14.4145 16.8133 14.5256C16.2861 14.636 15.7534 14.3565 15.6224 13.9013L13.4903 6.4726C13.3602 6.01712 13.6829 5.55796 14.2103 5.44698L22.8084 3.63787C23.3359 3.52692 23.8704 3.80614 24.0014 4.26166C24.1318 4.71729 23.8095 5.1774 23.282 5.28843L16.8645 6.63799C17.04 6.74397 17.2242 6.8573 17.4156 6.97633C18.8335 7.85783 20.6686 9.09827 22.2903 10.5136C23.892 11.9115 25.3827 13.5617 25.9752 15.2712C26.2769 16.1419 26.3548 17.0544 26.0661 17.9578Z" fill="black"/>
</svg>
