<svg width="30" height="30" viewBox="0 0 30 30" fill="none" xmlns="http://www.w3.org/2000/svg">
<path d="M16.5091 23.5274C16.6391 23.9828 16.3172 24.4422 15.79 24.5532L7.191 26.3621C6.66347 26.473 6.12889 26.1939 5.998 25.7383C5.86744 25.2827 6.18985 24.8227 6.71733 24.7116L13.1349 23.362C12.9594 23.2561 12.7751 23.1426 12.5837 23.0237C11.1659 22.1422 9.33166 20.9018 7.70997 19.4866C6.10812 18.0886 4.61666 16.4384 4.02416 14.7288C3.72246 13.8581 3.64549 12.9458 3.93419 12.0424C4.2242 11.1351 4.86222 10.3054 5.86028 9.57521C6.27412 9.27289 6.89479 9.31794 7.24719 9.67603C7.59935 10.0343 7.54945 10.5706 7.13585 10.8733C6.38889 11.4199 6.00013 11.9705 5.83089 12.4999C5.66066 13.0329 5.69059 13.6145 5.91033 14.2487C6.36144 15.5496 7.57151 16.9561 9.10597 18.2953C10.6207 19.6173 12.3601 20.7951 13.7309 21.6474C13.818 21.7015 13.9046 21.753 13.9884 21.8044L12.4668 16.5012C12.3362 16.0455 12.6585 15.5855 13.1861 15.4744C13.7133 15.3639 14.246 15.6434 14.3769 16.0987L16.5091 23.5274ZM26.0659 17.9587C25.7758 18.8656 25.1377 19.695 24.14 20.4249C23.7262 20.7273 23.1058 20.6813 22.7534 20.3232C22.401 19.9649 22.4498 19.4293 22.8635 19.1266C23.6106 18.5799 23.9983 18.0292 24.1675 17.4998C24.3378 16.9669 24.3093 16.3863 24.0897 15.7523C23.6388 14.4512 22.4272 13.0438 20.8925 11.7044C19.3779 10.3827 17.6391 9.20466 16.2684 8.3525C16.1816 8.29851 16.0946 8.24679 16.011 8.19556L17.5326 13.4987C17.6632 13.9543 17.3416 14.4145 16.8142 14.5257C16.2868 14.6364 15.7535 14.3558 15.6228 13.9003L13.4912 6.47274C13.3611 6.01729 13.6827 5.55891 14.21 5.44784L22.8093 3.63802C23.3368 3.52722 23.8705 3.8061 24.0014 4.26159C24.1319 4.71723 23.8098 5.17637 23.2823 5.28743L16.8642 6.63885C17.0397 6.74477 17.2246 6.85638 17.4159 6.97533C18.8338 7.85681 20.6689 9.09729 22.2906 10.5126C23.8923 11.9104 25.3829 13.5608 25.9755 15.2702C26.2773 16.141 26.3547 17.0551 26.0659 17.9587Z" fill="white"/>
</svg>
